<svg width="44" height="44" fill="none" xmlns="http://www.w3.org/2000/svg"><g filter="url(#a)"><path d="M18.667 18.667a3.333 3.333 0 1 1 6.666 0 3.333 3.333 0 0 1-6.666 0Zm9.908 8.791-1.2-2.408a2.5 2.5 0 0 0-2.242-1.383h-6.266a2.5 2.5 0 0 0-2.242 1.383l-1.2 2.408a.834.834 0 0 0 .742 1.209h11.666a.834.834 0 0 0 .742-1.209Z" fill="#EDDFC9"/><rect x=".5" y=".5" width="43" height="43" rx="9.5" stroke="#EDDFC9" stroke-opacity=".3"/></g><defs><filter id="a" x="-10" y="-10" width="64" height="64" filterUnits="userSpaceOnUse" color-interpolation-filters="sRGB"><feFlood flood-opacity="0" result="BackgroundImageFix"/><feGaussianBlur in="BackgroundImage" stdDeviation="5"/><feComposite in2="SourceAlpha" operator="in" result="effect1_backgroundBlur_1_22"/><feBlend in="SourceGraphic" in2="effect1_backgroundBlur_1_22" result="shape"/></filter></defs></svg>