<svg width="20" height="20" fill="none" xmlns="http://www.w3.org/2000/svg"><path d="M9.167 11.25a3.75 3.75 0 1 0-5.725 3.183c.338.2.595.513.725.884l.258.783a.833.833 0 0 0 .833.567h.467a.833.833 0 0 0 .833-.567l.109-.783c.121-.366.366-.678.691-.884a3.75 3.75 0 0 0 1.809-3.183Zm-3.75 1.667a1.666 1.666 0 1 1 0-3.333 1.666 1.666 0 0 1 0 3.333Zm8.95-5.067c.285.206.498.498.608.833l.35 1.042a.416.416 0 0 0 .392.283h.233a.417.417 0 0 0 .392-.283l.325-1.05c.11-.335.322-.627.608-.833a2.5 2.5 0 1 0-2.933 0l.025.008ZM15.833 5a.833.833 0 1 1 0 1.667.833.833 0 0 1 0-1.667Zm-2.5 5-.416-.358h.566a.208.208 0 0 0 .167-.084.225.225 0 0 0 0-.191l-.258-.767A.425.425 0 0 0 13 8.317h-1.392a.833.833 0 0 0-.758.5l-.067.158a.834.834 0 0 0 .159.9L15.583 15H9.075a.834.834 0 0 0-.833.567l-.184.55a.417.417 0 0 0 .392.55h8.983a.833.833 0 0 0 .767-.509l.067-.158a.834.834 0 0 0-.159-.9L13.333 10Z" fill="#33211B"/></svg>