<svg width="20" height="20" fill="none" xmlns="http://www.w3.org/2000/svg"><path d="M16.667 2.5H3.333a1.667 1.667 0 0 0-1.666 1.667v10a1.667 1.667 0 0 0 1.666 1.666h4.242a.833.833 0 0 1 .583.242L9.4 17.317a.625.625 0 0 0 .442.183h.316a.625.625 0 0 0 .442-.183l1.242-1.242a.833.833 0 0 1 .583-.242h4.242a1.667 1.667 0 0 0 1.666-1.666v-10A1.667 1.667 0 0 0 16.667 2.5Zm0 11.667h-4.242a2.5 2.5 0 0 0-1.767.733l-.658.658-.658-.658a2.5 2.5 0 0 0-1.767-.733H3.333v-10h13.334v10Zm-11.25-2.5h5.833a.416.416 0 0 0 .417-.417v-.833A.417.417 0 0 0 11.25 10H5.417a.417.417 0 0 0-.417.417v.833a.417.417 0 0 0 .417.417Zm0-3.334h9.166A.417.417 0 0 0 15 7.917v-.834a.417.417 0 0 0-.417-.416H5.417A.417.417 0 0 0 5 7.083v.834a.417.417 0 0 0 .417.416Z" fill="#33211B"/></svg>