<svg width="30" height="30" fill="none" xmlns="http://www.w3.org/2000/svg"><path d="m14.22 19.5-2.353-3.341c1.495-.143 2.275-1.495 2.275-2.782 0-1.417-.793-2.834-2.756-2.834h-3.42V19.5h1.34v-3.341h1.014l2.3 3.341h1.6Zm-2.847-7.735c.87 0 1.43.676 1.43 1.612 0 .949-.507 1.612-1.742 1.612H9.306v-3.224h2.067Zm7.466 7.891c1.78 0 3.315-1.183 3.315-3.237v-5.876h-1.34v5.863c0 1.365-.922 1.976-1.975 1.976s-1.963-.611-1.963-1.976v-5.863h-1.34v5.876c0 2.054 1.522 3.237 3.303 3.237Z" fill="#EDDFC9"/><rect x=".5" y=".5" width="29" height="29" rx="14.5" stroke="#EDDFC9"/></svg>