<svg width="194" height="36" fill="none" xmlns="http://www.w3.org/2000/svg"><path fill-rule="evenodd" clip-rule="evenodd" d="M193.17 9.605c-16.474-3.492-60.525-6.218-104.624 10.891C44.205 37.7 11.093 27.692 0 20.45l.547-.838c10.796 7.05 43.566 17.052 87.637-.047C132.496 2.372 176.75 5.102 193.377 8.627l-.207.978Z" fill="#EDDFC9" fill-opacity=".2"/><path fill-rule="evenodd" clip-rule="evenodd" d="M193.505 15.607C177.28 11.1 133.483 5.642 88.406 19.98 43.083 34.397 10.656 22.352.035 14.434l.597-.802c10.338 7.707 42.423 19.724 87.471 5.395 45.295-14.407 89.293-8.933 105.67-4.383l-.268.963Z" fill="#EDDFC9" fill-opacity=".2"/><path fill-rule="evenodd" clip-rule="evenodd" d="M193.445 22.157c-15.883-5.595-59.21-14.003-105.153-2.747C42.096 30.727 10.558 16.516.498 7.898l.65-.76c9.793 8.388 40.992 22.549 86.906 11.3 46.165-11.31 89.693-2.872 105.723 2.776l-.332.943Z" fill="#EDDFC9" fill-opacity=".2"/><path d="m39.724 2.477-5.183.65v29.445h6.61c3.555 0 6.168-.167 7.837-.5l1.552-6.986h1.627l-.45 9.64H25.402v-1.328l4.307-.676V3.128l-4.307-.651V1.15h14.322v1.327Zm36.457 6.81c0-2.053-.642-3.547-1.927-4.482-1.286-.935-3.372-1.402-6.26-1.402h-5.182v12.694h5.483c2.704 0 4.69-.534 5.959-1.602 1.285-1.068 1.927-2.804 1.927-5.208Zm2.53 15.874c0-2.354-.785-4.073-2.354-5.158-1.57-1.102-4.081-1.652-7.537-1.652h-6.008v14.12c2.303.1 4.757.15 7.36.15 2.855 0 4.991-.6 6.41-1.802 1.419-1.218 2.128-3.104 2.128-5.658Zm-25.038 9.564v-1.327l4.306-.676V3.128l-4.306-.651V1.15H69.02c4.256 0 7.37.634 9.339 1.903 1.97 1.251 2.954 3.246 2.954 5.984 0 1.97-.609 3.647-1.827 5.032-1.202 1.385-2.896 2.312-5.083 2.78 3.021.316 5.358 1.201 7.01 2.653 1.653 1.436 2.48 3.289 2.48 5.559 0 3.221-1.12 5.666-3.356 7.336-2.22 1.652-5.466 2.478-9.74 2.478l-10.716-.15h-6.41Zm49.026.501c-5.441 0-9.68-1.477-12.719-4.432-3.038-2.971-4.557-7.127-4.557-12.468 0-5.776 1.46-10.14 4.382-13.095C92.726 2.26 97.057.774 102.799.774c3.489 0 7.236.426 11.242 1.277l.15 7.336h-1.652l-.751-4.356c-1.169-.718-2.529-1.269-4.081-1.653-1.536-.4-3.105-.6-4.707-.6-4.29 0-7.42 1.26-9.39 3.78-1.969 2.52-2.954 6.426-2.954 11.717 0 4.874 1.027 8.597 3.08 11.167 2.07 2.57 5.074 3.856 9.013 3.856 1.903 0 3.698-.225 5.383-.676 1.686-.468 3.022-1.085 4.006-1.853l.927-5.007h1.627l-.15 7.886c-3.672 1.052-7.62 1.578-11.843 1.578Zm27.513-34-1.461.183v8.298h1.863c1.002 0 1.738-.047 2.208-.142l.438-1.968h.459l-.127 2.716h-7.416V9.94l1.214-.19V1.41l-1.214-.183V.852h4.036v.374Zm7.634 8.714v.373h-3.111V9.94l1.072-.19 3.224-8.975h1.341l3.351 8.975 1.2.19v.374h-4.001V9.94l1.27-.19-.938-2.73h-3.725l-.953 2.73 1.27.19Zm1.517-8.15-1.623 4.593h3.295l-1.672-4.593Zm6.287 8.523V9.94l1.502-.19V1.46h-.359c-1.19 0-2.004.047-2.442.14l-.19 1.475h-.473V.852h8.326v2.222h-.48l-.19-1.474c-.142-.033-.45-.061-.925-.085a26.432 26.432 0 0 0-1.559-.042h-.346v8.276l1.503.19v.374h-4.367ZM162.534.852v.374l-1.037.183-3.803 9.123h-.36l-3.846-9.123-1.065-.183V.852h3.824v.374l-1.27.183 2.865 6.964 2.857-6.964-1.242-.183V.852h3.077Zm3.259 8.897 1.214.19v.374h-3.782V9.94l1.214-.19V1.41l-1.214-.183V.852h3.782v.374l-1.214.183v8.34Zm4.975.191v.373h-3.112V9.94l1.073-.19 3.224-8.975h1.341l3.351 8.975 1.199.19v.374h-4V9.94l1.27-.19-.938-2.73h-3.726l-.952 2.73 1.27.19Zm1.517-8.15-1.623 4.593h3.295l-1.672-4.593Zm13.822-.38-1.27-.184V.852h3.224v.374l-1.214.183v8.904h-.684l-5.835-8.509V9.75l1.27.19v.374h-3.224V9.94l1.213-.19V1.41l-1.213-.183V.852h2.864l4.869 7.006V1.409Zm-53.588 14.12c0-.578-.181-.999-.543-1.262-.362-.264-.95-.396-1.764-.396h-1.461v3.578h1.546c.762 0 1.321-.15 1.679-.452.362-.301.543-.79.543-1.468Zm.713 4.474c0-.663-.221-1.148-.664-1.454-.442-.31-1.15-.465-2.123-.465h-1.694v3.979c.65.028 1.341.042 2.075.042.804 0 1.406-.169 1.806-.508.4-.343.6-.874.6-1.594Zm-7.056 2.695v-.374l1.214-.19v-8.34l-1.214-.184v-.374h4.325c1.2 0 2.077.18 2.632.537.555.352.833.915.833 1.686 0 .555-.172 1.028-.516 1.418-.338.39-.816.652-1.432.783.852.09 1.51.339 1.976.748.465.405.698.927.698 1.567 0 .907-.315 1.597-.945 2.067-.626.466-1.541.698-2.745.698l-3.02-.042h-1.806Zm12.312-.564 1.214.19v.374h-3.782v-.374l1.213-.19v-8.34l-1.213-.184v-.374h3.782v.374l-1.214.184v8.34Zm8.481-6.605c0-.578-.181-.999-.543-1.262-.362-.264-.95-.396-1.764-.396h-1.461v3.578h1.546c.762 0 1.321-.15 1.679-.452.362-.301.543-.79.543-1.468Zm.713 4.474c0-.663-.221-1.148-.664-1.454-.442-.31-1.15-.465-2.123-.465h-1.694v3.979a48.28 48.28 0 0 0 2.075.042c.804 0 1.406-.169 1.806-.508.4-.343.6-.874.6-1.594Zm-7.056 2.695v-.374l1.214-.19v-8.34l-1.214-.184v-.374h4.325c1.2 0 2.077.18 2.632.537.555.352.832.915.832 1.686 0 .555-.171 1.028-.515 1.418-.338.39-.816.652-1.432.783.851.09 1.51.339 1.976.748.465.405.698.927.698 1.567 0 .907-.315 1.597-.945 2.067-.626.466-1.541.698-2.745.698l-3.02-.042h-1.806Zm13.674-9.088-1.461.184v8.297h1.863c1.002 0 1.738-.047 2.208-.14l.438-1.97h.458l-.127 2.717h-7.415v-.374l1.214-.19v-8.34l-1.214-.184v-.374h4.036v.374Zm7.472 8.524 1.213.19v.374h-3.782v-.374l1.214-.19v-8.34l-1.214-.184v-.374h3.782v.374l-1.213.184v8.34Zm7.182.705c-1.533 0-2.728-.416-3.584-1.249-.856-.837-1.284-2.008-1.284-3.513 0-1.628.412-2.858 1.235-3.69.823-.838 2.044-1.256 3.662-1.256.983 0 2.039.12 3.168.36l.042 2.067h-.466l-.211-1.228a4.046 4.046 0 0 0-1.15-.466 5.236 5.236 0 0 0-1.327-.169c-1.209 0-2.091.355-2.646 1.066-.555.71-.832 1.81-.832 3.302 0 1.373.289 2.422.867 3.146.584.725 1.43 1.087 2.54 1.087.537 0 1.042-.064 1.517-.19.476-.132.852-.306 1.129-.523l.261-1.41h.459l-.042 2.222a12.079 12.079 0 0 1-3.338.444Zm7.43-.515v.374h-3.112v-.374l1.073-.19 3.224-8.975h1.341l3.351 8.975 1.2.19v.374h-4.001v-.374l1.27-.19-.938-2.73h-3.726l-.952 2.73 1.27.19Zm1.517-8.15-1.623 4.594h3.295l-1.672-4.593Zm10.125-.564-1.461.184v8.297h1.863c1.002 0 1.738-.047 2.208-.14l.438-1.97h.458l-.127 2.717h-7.415v-.374l1.213-.19v-8.34l-1.213-.184v-.374h4.036v.374Zm-56.805 21.615c-1.534 0-2.728-.416-3.584-1.249-.856-.837-1.285-2.008-1.285-3.514 0-1.627.412-2.857 1.235-3.69.823-.837 2.044-1.256 3.662-1.256.983 0 2.039.12 3.168.36l.042 2.067h-.465l-.212-1.227a4.037 4.037 0 0 0-1.15-.466 5.239 5.239 0 0 0-1.326-.17c-1.209 0-2.091.356-2.646 1.066-.555.71-.833 1.811-.833 3.302 0 1.374.289 2.423.868 3.147.583.724 1.43 1.087 2.54 1.087.536 0 1.042-.064 1.517-.191.475-.132.851-.306 1.129-.522l.261-1.411h.459l-.043 2.222a12.076 12.076 0 0 1-3.337.445Zm4.593-.516 1.214-.19v-8.34l-1.214-.183v-.374h7.098v2.265h-.466l-.225-1.531c-.527-.066-1.289-.099-2.286-.099h-1.546v3.697h2.555l.218-1.129h.452v2.907h-.452l-.218-1.143h-2.555v3.86h1.863c1.214 0 2.009-.038 2.385-.113l.402-1.75h.466l-.134 2.498h-7.557v-.374Zm16.567-8.53-1.27-.183v-.374h3.224v.374l-1.213.183v8.905h-.685l-5.835-8.51v7.945l1.27.19v.375h-3.224v-.374l1.213-.19v-8.34l-1.213-.184v-.374h2.864l4.869 7.006v-6.448Zm4.515 8.905v-.374l1.503-.19V26.23h-.36c-1.19 0-2.003.047-2.441.141l-.19 1.475h-.473v-2.223h8.325v2.223h-.479l-.191-1.475c-.141-.033-.449-.061-.924-.085a26.45 26.45 0 0 0-1.559-.042h-.346v8.276l1.503.19v.375h-4.368Zm9.603-4.149v3.584l1.432.19v.375h-3.916v-.374l1.122-.19v-8.34l-1.213-.184v-.374h4.085c1.185 0 2.06.2 2.625.6.564.4.846 1.042.846 1.926 0 .63-.171 1.176-.515 1.637-.343.456-.818.774-1.425.952l2.561 3.782 1.023.19v.375h-2.265l-2.66-4.149h-1.7Zm3.577-2.688c0-.72-.176-1.23-.529-1.531-.348-.306-.962-.459-1.841-.459h-1.207v4.043h1.249c.842 0 1.439-.155 1.792-.466.357-.315.536-.844.536-1.587Zm3.486 6.462 1.213-.19v-8.34l-1.213-.183v-.374h7.098v2.265h-.466l-.226-1.531c-.527-.066-1.289-.099-2.286-.099h-1.545v3.697h2.554l.219-1.129h.451v2.907h-.451l-.219-1.143h-2.554v3.86H178c1.213 0 2.008-.038 2.384-.113l.403-1.75h.465l-.134 2.498h-7.556v-.374Z" fill="#fff"/></svg>