<svg width="152" height="152" fill="none" xmlns="http://www.w3.org/2000/svg"><g clip-path="url(#a)" fill="#33211B"><path d="M76.926 67.514s3.472-3.052 5.148-4.474c1.669-1.422 4.017.926 6.829.571 2.811-.349 5.35-2.228 5.35-2.228L104.72 72.75s-.26.806-1.117 1.936c-.851 1.13-2.824 4.855-2.824 4.855l-4.792 5.795-16.572-16.692-2.481-1.142-.007.012ZM63.89 93.796c.35-.47 5.598-5.16 5.598-5.16s3.078.102 3.459 1.428c.38 1.32 4.278 2.33 4.278 2.33l1.364 2.043-.787 3.282-3.148 2.05-3.053-.883-1.567-2.341-3.199 1.86-2.945-1.327v-3.282Z" fill-opacity=".1"/><path d="M95.98 86.58c-.356 0-.711-.152-.959-.45a1.237 1.237 0 0 1 .171-1.74c3.06-2.507 4.234-4.868 5.275-6.956.875-1.764 1.707-3.433 3.459-4.69a1.23 1.23 0 0 1 1.72.286 1.226 1.226 0 0 1-.286 1.72c-1.25.895-1.885 2.17-2.685 3.782-1.091 2.196-2.45 4.925-5.915 7.769-.228.19-.508.28-.78.28Zm-33.892 8.867a4.282 4.282 0 0 1-3.028-1.25 4.279 4.279 0 0 1 0-6.05l3.021-3.02a4.279 4.279 0 0 1 6.049 0 4.247 4.247 0 0 1 1.25 3.027 4.247 4.247 0 0 1-1.25 3.028l-3.021 3.02a4.272 4.272 0 0 1-3.028 1.25l.007-.005Zm3.02-9.108c-.463 0-.926.178-1.281.527l-3.021 3.02a1.812 1.812 0 0 0 0 2.559 1.812 1.812 0 0 0 2.557 0l3.021-3.022a1.8 1.8 0 0 0 .527-1.282 1.801 1.801 0 0 0-1.809-1.809l.007.007Z"/><path d="M57.842 91.143a4.282 4.282 0 0 1-3.028-1.25 4.279 4.279 0 0 1 0-6.048l.483-.483a4.279 4.279 0 0 1 6.048 0 4.279 4.279 0 0 1 0 6.049l-.482.482a4.272 4.272 0 0 1-3.028 1.25h.007Zm.482-6.562c-.463 0-.927.177-1.282.527l-.483.482a1.812 1.812 0 0 0 0 2.558 1.812 1.812 0 0 0 2.558 0l.483-.483a1.812 1.812 0 0 0 0-2.557 1.8 1.8 0 0 0-1.282-.527h.006Zm47.341-9.495c-.343 0-.686-.146-.933-.425L91.016 58.927a1.229 1.229 0 0 1 .12-1.739l6.748-5.883a1.229 1.229 0 0 1 1.739.12 1.23 1.23 0 0 1-.121 1.74l-5.814 5.07 12.097 13.874 1.403-1.224a1.229 1.229 0 0 1 1.739.12 1.228 1.228 0 0 1-.121 1.74l-2.335 2.03a1.235 1.235 0 0 1-.813.305l.007.006Z"/><path d="M54.808 85.717c-.286 0-.565-.095-.8-.298l-.305-.26c-1.167-.997-1.288-1.105-1.904-1.72-1.935-1.93-3.116-4.018-3.922-5.624-.28-.552-.54-1.091-.78-1.605-.483-1.01-.895-1.88-1.346-2.546a1.18 1.18 0 0 1-.108-.196 1.228 1.228 0 0 1 .254-1.72 1.236 1.236 0 0 1 1.726.26c.064.082.14.19.216.336.54.813.997 1.777 1.485 2.8.235.494.483 1.015.756 1.554.73 1.44 1.777 3.307 3.465 4.989.546.546.615.609 1.764 1.586l.305.26c.52.445.577 1.226.14 1.74-.242.285-.59.431-.94.431l-.006.013ZM75.124 60.73a1.23 1.23 0 0 1-.724-.235c-2.208-1.6-5.185-2.057-7.971-1.219a9.55 9.55 0 0 1-.584.165c-3.091.901-5.535 1.168-7.204.78a3.562 3.562 0 0 1-.438-.107h-.012a9.97 9.97 0 0 0-.178-.07 1.241 1.241 0 0 1-.59-1.644 1.23 1.23 0 0 1 1.517-.64.663.663 0 0 0 .159.044c1.307.298 3.446.025 6.099-.743.196-.05.349-.095.5-.14 3.53-1.066 7.319-.475 10.15 1.575.552.4.672 1.174.272 1.726a1.219 1.219 0 0 1-1.002.508h.006Zm12.573 33.371a4.282 4.282 0 0 1-3.028-1.25l-3.02-3.021a1.233 1.233 0 1 1 1.745-1.746l3.02 3.021a1.812 1.812 0 0 0 2.559 0 1.812 1.812 0 0 0 0-2.557l-5.624-5.624a1.234 1.234 0 1 1 1.746-1.745l5.623 5.623a4.279 4.279 0 0 1 0 6.049 4.272 4.272 0 0 1-3.028 1.25h.007Z"/><path d="M93.44 91.296a4.283 4.283 0 0 1-3.027-1.25l-7.064-7.128a1.234 1.234 0 1 1 1.752-1.739l7.058 7.121c.698.705 1.853.698 2.557 0a1.812 1.812 0 0 0 0-2.558l-.482-.482a1.233 1.233 0 1 1 1.745-1.745l.483.482a4.279 4.279 0 0 1 0 6.049 4.272 4.272 0 0 1-3.028 1.25h.007Zm-10.141 7.019a4.248 4.248 0 0 1-3.028-1.25l-3.345-3.345a1.233 1.233 0 1 1 1.746-1.745l3.344 3.345c.68.679 1.88.679 2.558 0a1.812 1.812 0 0 0 0-2.558l-5.648-5.649a1.233 1.233 0 1 1 1.745-1.745l5.649 5.648a4.279 4.279 0 0 1 0 6.049 4.247 4.247 0 0 1-3.028 1.25h.007ZM45.567 75.124c-.298 0-.584-.108-.813-.304l-2.335-2.038a1.235 1.235 0 0 1-.12-1.739 1.229 1.229 0 0 1 1.738-.12l1.403 1.224 12.103-13.874-5.813-5.064a1.235 1.235 0 0 1-.121-1.74 1.23 1.23 0 0 1 1.74-.12l6.746 5.877c.514.45.565 1.225.12 1.74L46.5 74.698c-.216.248-.52.4-.844.419h-.083l-.006.006Z"/><path d="M95.11 85.622c-.317 0-.635-.12-.876-.362L77.974 69a.933.933 0 0 0-1.32-.026c-1.384 1.32-3.364 3.212-4.551 4.348l-.997.952a3.865 3.865 0 0 1-2.837 1.104 3.922 3.922 0 0 1-2.786-1.231l-.406-.425a4.331 4.331 0 0 1-.368-.457c-1.149-1.524-.965-3.77.476-5.167l8.784-8.396a12.43 12.43 0 0 1 1.46-1.206c2.817-2.044 6.606-2.634 10.123-1.574 3.103.939 5.578 1.244 6.79.844a1.233 1.233 0 1 1 .781 2.342c-1.764.584-4.55.31-8.288-.819-2.787-.838-5.763-.38-7.972 1.218a9.867 9.867 0 0 0-1.187.984l-8.784 8.397a1.496 1.496 0 0 0-.165 1.974c.076.108.114.146.146.184l.387.4c.28.292.654.457 1.06.47.419.006.787-.14 1.073-.42l1.002-.951c1.187-1.13 3.168-3.022 4.551-4.342a3.42 3.42 0 0 1 4.78.07l16.253 16.254a1.233 1.233 0 0 1-.875 2.108l.006-.013ZM66.486 99.66a4.247 4.247 0 0 1-3.028-1.25 4.279 4.279 0 0 1 0-6.048l3.821-3.82a4.247 4.247 0 0 1 3.028-1.251c1.148 0 2.221.444 3.027 1.25a4.248 4.248 0 0 1 1.25 3.028 4.247 4.247 0 0 1-1.25 3.027l-3.82 3.82a4.247 4.247 0 0 1-3.028 1.251v-.006Zm3.82-9.9a1.8 1.8 0 0 0-1.281.527l-3.821 3.82a1.812 1.812 0 0 0 0 2.558c.679.68 1.879.68 2.558 0l3.82-3.82c.337-.337.527-.794.527-1.283a1.79 1.79 0 0 0-.527-1.282 1.779 1.779 0 0 0-1.282-.527l.007.007Z"/><path d="M73.76 101a4.27 4.27 0 0 1-3.034-1.244 4.279 4.279 0 0 1-.495-5.445c.12-.197.291-.4.463-.578l1.821-1.822c1.397-1.402 3.732-1.637 5.382-.552l.077.057c.196.134.387.292.59.495.171.172.336.362.489.584a4.249 4.249 0 0 1-.49 5.459l-1.789 1.796a3.666 3.666 0 0 1-.666.533 4.168 4.168 0 0 1-2.355.717h.006Zm1.79-7.87c-.49 0-.947.19-1.29.527l-1.79 1.79a1.32 1.32 0 0 0-.17.209c-.52.762-.432 1.752.17 2.355.585.584 1.607.685 2.292.21a1.14 1.14 0 0 0 .267-.21l1.79-1.796c.609-.61.698-1.6.203-2.304a1.552 1.552 0 0 0-.21-.248 1.943 1.943 0 0 0-.247-.216.317.317 0 0 1-.058-.044 1.837 1.837 0 0 0-.97-.273h.012Z"/></g><rect x="1" y="1" width="150" height="150" rx="75" stroke="#33211B" stroke-opacity=".1"/><defs><clipPath id="a"><path fill="#fff" transform="translate(42 51)" d="M0 0h67.231v50H0z"/></clipPath></defs></svg>