<svg width="152" height="152" fill="none" xmlns="http://www.w3.org/2000/svg"><path d="M103.563 57.066h-2.684v36.946h-21.74c.955.922 1.23 2.35.449 3.67-.884 1.486-2.793 1.883-4.375 1.537-1.563-.34-2.78-1.748-2.62-3.324a2.288 2.288 0 0 1-.185-.813c-.02-.391.102-.756.294-1.07H55.87v5.733h47.323a3.417 3.417 0 0 0 3.414-3.414V60.108a3.046 3.046 0 0 0-3.043-3.042Z" fill="#33211B" fill-opacity=".1"/><path d="M75.924 95.26H54.697c-2.005 0-4.97-1.96-4.97-4.669V55.676c0-2.71 2.972-4.67 4.97-4.67h18.53c2.172 0 3.946 2.095 3.946 4.67v38.342a1.25 1.25 0 0 1-1.249 1.25v-.007ZM54.697 53.493c-.91 0-2.479 1.076-2.479 2.177v34.916c0 1.102 1.57 2.178 2.479 2.178h19.978V55.669c0-1.159-.679-2.177-1.454-2.177H54.697Z" fill="#33211B"/><path d="M98.176 95.26H75.924a1.25 1.25 0 0 1-1.249-1.248V55.669c0-2.575 1.768-4.669 3.946-4.669h19.555c2.172 0 3.946 2.094 3.946 4.67v34.915c0 2.575-1.768 4.67-3.946 4.67v.006Zm-21.01-2.49h21.01c.775 0 1.454-1.02 1.454-2.179V55.676c0-1.16-.679-2.178-1.454-2.178H78.621c-.775 0-1.454 1.019-1.454 2.178v37.093Z" fill="#33211B"/><path d="M103.851 100.987H86.358a1.25 1.25 0 0 1-1.249-1.249c0-.692.558-1.249 1.25-1.249h17.492c.801 0 1.506-1.05 1.506-2.248V60.55c0-1.199-.705-2.249-1.506-2.249h-1.447a1.25 1.25 0 0 1 0-2.498h1.447c2.204 0 3.997 2.127 3.997 4.74v35.69c0 2.614-1.793 4.74-3.997 4.74v.013Zm-37.355 0h-18.5c-2.203 0-3.996-2.126-3.996-4.74v-35.69c0-2.614 1.794-4.74 3.997-4.74h1.447c.686 0 1.25.557 1.25 1.249 0 .692-.558 1.249-1.25 1.249h-1.447c-.8 0-1.505 1.05-1.505 2.248v35.69c0 1.198.704 2.249 1.505 2.249h18.499a1.25 1.25 0 0 1 1.249 1.249c0 .692-.558 1.249-1.25 1.249v-.013Zm9.524 0c-3.01 0-5.457-2.664-5.457-5.944a1.25 1.25 0 0 1 1.249-1.249c.692 0 1.249.557 1.249 1.25 0 1.901 1.332 3.452 2.966 3.452 1.633 0 2.965-1.55 2.965-3.453a1.25 1.25 0 0 1 1.25-1.249c.691 0 1.248.557 1.248 1.25 0 3.279-2.446 5.943-5.457 5.943h-.013Zm-5.233-39.668H56.112a1.25 1.25 0 0 1-1.248-1.25c0-.69.557-1.248 1.248-1.248h14.675c.685 0 1.25.557 1.25 1.249 0 .692-.558 1.249-1.25 1.249Z" fill="#33211B"/><path d="M68.731 78.722H56.113a1.25 1.25 0 0 1-1.25-1.249c0-.692.558-1.249 1.25-1.249H68.73c.685 0 1.25.557 1.25 1.25 0 .691-.558 1.248-1.25 1.248Zm-4.112 8.705h-8.507a1.25 1.25 0 0 1-1.248-1.249c0-.692.557-1.249 1.248-1.249h8.507a1.25 1.25 0 0 1 1.249 1.249c0 .692-.557 1.249-1.25 1.249Zm6.168 0h-2.056a1.25 1.25 0 0 1-1.25-1.249c0-.692.558-1.249 1.25-1.249h2.056a1.25 1.25 0 0 1 1.25 1.249c0 .692-.558 1.249-1.25 1.249Zm-6.168-17.403h-8.507a1.25 1.25 0 0 1-1.248-1.25c0-.691.557-1.248 1.248-1.248h8.507a1.25 1.25 0 0 1 1.249 1.249c0 .692-.557 1.249-1.25 1.249Zm31.117-8.705H81.06a1.25 1.25 0 0 1-1.249-1.25c0-.69.557-1.248 1.25-1.248h14.674a1.25 1.25 0 0 1 1.249 1.249c0 .692-.557 1.249-1.25 1.249Zm-7.988 17.403h-6.68a1.25 1.25 0 0 1-1.25-1.249c0-.692.558-1.249 1.25-1.249h6.68a1.25 1.25 0 0 1 1.25 1.25c0 .691-.558 1.248-1.25 1.248Zm7.988 8.705H81.06a1.25 1.25 0 0 1-1.249-1.249c0-.692.557-1.249 1.25-1.249h14.674a1.25 1.25 0 0 1 1.249 1.249c0 .692-.557 1.249-1.25 1.249Zm-2.364-17.403H81.068a1.25 1.25 0 0 1-1.25-1.25c0-.691.558-1.248 1.25-1.248h12.304c.686 0 1.25.557 1.25 1.249 0 .692-.558 1.249-1.25 1.249Z" fill="#33211B"/><rect x="1" y="1" width="150" height="150" rx="75" stroke="#33211B" stroke-opacity=".1"/></svg>