<svg width="152" height="152" fill="none" xmlns="http://www.w3.org/2000/svg"><path d="M79.909 88.472c12.03 0 21.783-6.407 21.783-14.31 0-7.904-9.753-14.31-21.783-14.31-12.031 0-21.784 6.406-21.784 14.31 0 7.903 9.753 14.31 21.784 14.31Z" fill="#33211B" fill-opacity=".1"/><path d="M88.93 65.242H63.97c-.609 0-1.11-.495-1.11-1.11 0-.615.496-1.11 1.11-1.11h24.96a1.11 1.11 0 0 1 0 2.22Zm-5.544 14.532H69.52c-.609 0-1.11-.495-1.11-1.11 0-.615.496-1.11 1.11-1.11h13.866a1.11 1.11 0 0 1 0 2.22Zm-5.549-7.269H62.58c-.609 0-1.11-.495-1.11-1.11 0-.615.496-1.11 1.11-1.11h15.255a1.11 1.11 0 0 1 0 2.22Zm12.483 0h-6.934c-.609 0-1.11-.495-1.11-1.11 0-.615.496-1.11 1.11-1.11h6.933a1.11 1.11 0 0 1 0 2.22Z" fill="#33211B"/><path d="M84.138 101c-.046 0-.097 0-.142-.011a20.357 20.357 0 0 1-8.499-3.137c-3.763-2.47-5.903-5.67-7.07-8.066-.267-.09-.529-.187-.79-.29C56.484 86.781 49 79.267 49 70.775 49 59.868 61.318 51 76.453 51c15.136 0 27.454 8.874 27.454 19.775 0 7.4-5.647 14.11-14.743 17.531a25.092 25.092 0 0 1-3.933 1.634c-.274.137-.95 1.474-1.127 4.525-.097 1.651.25 3.313 1.03 4.947a1.102 1.102 0 0 1-1.002 1.582l.006.006Zm-7.685-47.786c-13.917 0-25.239 7.878-25.239 17.56 0 7.463 6.837 14.129 17.008 16.582.046.011.086.023.131.04.399.148.797.296 1.207.427.296.096.54.313.672.592.99 2.168 2.92 5.242 6.478 7.576a18.05 18.05 0 0 0 5.675 2.442 11.794 11.794 0 0 1-.496-4.11c.228-3.83 1.127-6.022 2.676-6.512 1.224-.387 2.447-.9 3.637-1.514.04-.023.08-.04.125-.057 8.242-3.08 13.365-9.01 13.365-15.483 0-9.682-11.321-17.56-25.239-17.56v.017Z" fill="#33211B"/><rect x="1" y="1" width="150" height="150" rx="75" stroke="#33211B" stroke-opacity=".1"/></svg>