<svg width="44" height="44" fill="none" xmlns="http://www.w3.org/2000/svg"><g filter="url(#a)"><path fill-rule="evenodd" clip-rule="evenodd" d="M29.792 15.415c.86.23 1.54.911 1.771 1.771C31.988 18.752 32 22 32 22s0 3.26-.424 4.814a2.519 2.519 0 0 1-1.771 1.771c-1.553.424-7.805.424-7.805.424s-6.252 0-7.805-.424a2.519 2.519 0 0 1-1.771-1.771C12 25.248 12 22 12 22s0-3.248.41-4.801c.232-.86.912-1.54 1.772-1.772 1.554-.423 7.805-.436 7.805-.436s6.252 0 7.805.424ZM25.184 22l-5.187 3.004v-6.008L25.184 22Z" fill="#EDDFC9"/><rect x=".5" y=".5" width="43" height="43" rx="9.5" stroke="#EDDFC9" stroke-opacity=".3"/></g><defs><filter id="a" x="-10" y="-10" width="64" height="64" filterUnits="userSpaceOnUse" color-interpolation-filters="sRGB"><feFlood flood-opacity="0" result="BackgroundImageFix"/><feGaussianBlur in="BackgroundImage" stdDeviation="5"/><feComposite in2="SourceAlpha" operator="in" result="effect1_backgroundBlur_1_44"/><feBlend in="SourceGraphic" in2="effect1_backgroundBlur_1_44" result="shape"/></filter></defs></svg>